<svg xmlns="http://www.w3.org/2000/svg" viewBox="0 0 1600 800" preserveAspectRatio="none"><g fill="none" stroke="#2867a1" stroke-width="1.4" opacity=".26"><path d="M0 190H142q12 0 12-12v-55h79" stroke-dasharray="7 10"/><path d="M0 596h160q25 0 25-25v-34h84"/><path d="M1600 210h-152q-20 0-20 20v33h-75" stroke-dasharray="7 10"/><path d="M1600 620h-140q-22 0-22-22v-35h-76"/><path d="M57 780v-57h65M1538 0v54h-74" stroke-dasharray="6 11"/><circle cx="269" cy="537" r="5" fill="#fff"/><circle cx="1353" cy="263" r="5" fill="#fff"/><circle cx="185" cy="571" r="5" fill="#fff"/></g><g fill="#559aca" opacity=".32"><circle cx="280" cy="198" r="2"/><circle cx="1290" cy="198" r="2"/><circle cx="1040" cy="625" r="2"/></g><g fill="none" stroke="#3a80b5" stroke-width="1" opacity=".17"><circle cx="55" cy="715" r="44"/><circle cx="1530" cy="686" r="44"/></g></svg>